<svg xmlns="http://www.w3.org/2000/svg" xmlns:xlink="http://www.w3.org/1999/xlink" width="500" zoomAndPan="magnify" viewBox="0 0 375 299.999988" height="400" preserveAspectRatio="xMidYMid meet" version="1.0"><defs><g/><clipPath id="id1"><path d="M 0 15 L 129 15 L 129 279.519531 L 0 279.519531 Z M 0 15 " clip-rule="nonzero"/></clipPath><clipPath id="id2"><path d="M 246 15 L 375 15 L 375 279.519531 L 246 279.519531 Z M 246 15 " clip-rule="nonzero"/></clipPath></defs><g clip-path="url(#id1)"><path fill="#d8bfbf" d="M 127.554688 277.648438 C 121.195312 276.078125 115.132812 273.90625 109.371094 271.289062 C 109.296875 271.140625 109.222656 270.988281 109.070312 270.839844 L 108.996094 270.765625 C 108.699219 260.441406 100.691406 249.667969 93.429688 242.9375 C 92.457031 242.039062 90.363281 242.5625 90.511719 244.132812 C 91.5625 252.511719 94.929688 260.664062 100.617188 266.875 C 90.886719 261.414062 82.132812 254.53125 74.125 246.527344 C 74.273438 246.300781 74.347656 246.003906 74.347656 245.703125 C 74.421875 238.746094 73.449219 232.015625 71.054688 225.429688 C 69.335938 220.71875 67.089844 214.507812 62.449219 212.039062 C 61.402344 211.515625 60.128906 212.191406 60.128906 213.386719 C 59.980469 221.539062 61.699219 229.695312 65.441406 236.875 C 64.097656 235.304688 62.824219 233.660156 61.550781 232.015625 C 53.46875 221.390625 46.210938 209.796875 40.296875 197.675781 C 40.371094 197.527344 40.449219 197.300781 40.371094 197.078125 C 40.296875 196.855469 40.296875 196.628906 40.222656 196.40625 C 40.449219 196.328125 40.746094 196.179688 40.898438 195.882812 C 48.378906 184.808594 47.183594 168.351562 43.816406 156.082031 C 43.441406 154.660156 41.570312 154.585938 40.820312 155.707031 C 33.9375 165.734375 33.863281 177.253906 36.105469 188.476562 C 32.140625 179.125 29.074219 169.398438 27.128906 159.449219 C 26.304688 155.257812 25.707031 151.070312 25.40625 146.957031 C 25.628906 146.957031 25.929688 146.882812 26.152344 146.730469 C 37.15625 140.074219 43.292969 125.261719 45.011719 113.066406 C 45.238281 111.496094 43.515625 110.148438 42.167969 111.421875 C 34.535156 118.753906 28.550781 127.503906 25.03125 137.378906 C 25.257812 121.746094 28.921875 106.707031 35.058594 92.417969 C 35.285156 92.644531 35.660156 92.792969 36.03125 92.792969 C 48.902344 92.195312 61.101562 80.898438 67.613281 70.574219 C 68.363281 69.378906 67.089844 67.65625 65.742188 68.105469 C 56.386719 71.25 47.78125 75.738281 40.148438 81.871094 C 47.183594 68.40625 56.164062 55.761719 66.191406 44.167969 L 66.265625 44.167969 C 72.628906 41.027344 80.035156 38.40625 85.199219 33.394531 C 89.613281 29.054688 92.007812 23.148438 94.328125 17.535156 C 95.078125 15.742188 92.832031 14.769531 91.484375 15.589844 C 91.335938 15.515625 91.261719 15.515625 91.035156 15.515625 C 85.273438 16.1875 80.183594 18.433594 75.996094 22.472656 C 71.429688 26.960938 69.257812 33.019531 65.890625 38.332031 C 58.183594 46.636719 51.148438 55.839844 45.011719 65.636719 C 46.808594 51.796875 49.128906 36.984375 45.535156 23.371094 C 45.085938 21.726562 43.066406 21.726562 42.242188 22.921875 C 32.214844 36.984375 31.09375 57.035156 41.644531 71.175781 C 34.984375 82.695312 29.746094 95.039062 26.378906 107.605469 C 26.078125 102.21875 25.628906 96.910156 25.03125 91.597656 C 24.65625 88.082031 25.40625 81.050781 22.335938 78.582031 C 21.738281 78.054688 20.914062 77.90625 20.242188 78.28125 C 8.640625 85.3125 13.65625 112.09375 23.683594 118.378906 C 23.757812 118.453125 23.835938 118.453125 23.984375 118.453125 C 22.261719 128.179688 21.664062 137.980469 22.488281 147.855469 L 22.488281 147.929688 C 22.488281 148.078125 22.488281 148.226562 22.5625 148.378906 C 22.863281 151.894531 23.308594 155.335938 23.984375 158.851562 C 24.433594 161.320312 25.03125 163.714844 25.628906 166.105469 C 22.9375 161.542969 19.570312 156.980469 16.425781 153.015625 C 12.757812 148.378906 8.417969 144.710938 2.582031 143.140625 C 1.234375 142.765625 0.1875 143.964844 0.410156 145.308594 C 3.253906 158.777344 13.433594 170.519531 26.902344 174.1875 C 27.277344 174.261719 27.574219 174.1875 27.800781 174.035156 C 31.917969 187.425781 37.902344 200.445312 45.085938 212.5625 C 42.167969 210.167969 39.101562 208 35.808594 206.203125 C 31.394531 203.734375 25.179688 199.921875 20.015625 201.566406 C 19.121094 201.867188 18.445312 202.839844 18.746094 203.734375 C 23.160156 217.351562 37.082031 226.105469 51.148438 222.289062 L 51.222656 222.289062 C 54.292969 226.925781 57.585938 231.414062 60.953125 235.679688 C 66.265625 242.488281 72.253906 249.070312 78.839844 254.980469 C 70.605469 250.792969 60.277344 249.820312 51.671875 250.714844 C 50.25 250.867188 49.351562 252.511719 50.476562 253.632812 C 59.832031 262.910156 74.050781 266.652344 86.546875 261.789062 C 86.695312 261.714844 86.769531 261.636719 86.847656 261.5625 C 98.746094 270.539062 112.289062 277.125 127.257812 279.21875 C 128.15625 279.519531 128.679688 277.945312 127.554688 277.648438 Z M 77.867188 25.765625 C 77.640625 26.214844 77.492188 26.585938 77.265625 27.035156 C 76.742188 27.484375 76.21875 27.933594 75.695312 28.457031 C 76.367188 27.484375 77.117188 26.585938 77.867188 25.765625 Z M 77.867188 25.765625 " fill-opacity="1" fill-rule="nonzero"/></g><g clip-path="url(#id2)"><path fill="#d8bfbf" d="M 247.667969 279.367188 C 262.636719 277.273438 276.179688 270.691406 288.078125 261.714844 C 288.152344 261.789062 288.304688 261.863281 288.378906 261.9375 C 300.875 266.800781 315.09375 263.058594 324.449219 253.785156 C 325.570312 252.660156 324.675781 251.015625 323.253906 250.867188 C 314.722656 250.042969 304.320312 251.015625 296.085938 255.128906 C 302.671875 249.21875 308.660156 242.710938 313.972656 235.828125 C 317.339844 231.492188 320.558594 227 323.699219 222.4375 L 323.777344 222.4375 C 337.84375 226.179688 351.765625 217.5 356.179688 203.886719 C 356.480469 202.914062 355.804688 202.015625 354.90625 201.714844 C 349.742188 199.996094 343.53125 203.8125 339.117188 206.355469 C 335.824219 208.226562 332.757812 210.320312 329.835938 212.714844 C 337.023438 200.519531 343.007812 187.578125 347.125 174.1875 C 347.347656 174.335938 347.648438 174.410156 348.023438 174.335938 C 361.492188 170.671875 371.671875 158.925781 374.515625 145.460938 C 374.8125 144.1875 373.691406 142.992188 372.34375 143.289062 C 366.507812 144.785156 362.242188 148.453125 358.5 153.164062 C 355.355469 157.128906 351.988281 161.691406 349.292969 166.257812 C 349.894531 163.863281 350.417969 161.394531 350.941406 159 C 351.613281 155.484375 352.0625 152.042969 352.363281 148.527344 C 352.4375 148.378906 352.4375 148.226562 352.4375 148.078125 L 352.4375 148.003906 C 353.261719 138.203125 352.664062 128.328125 350.941406 118.601562 C 351.015625 118.601562 351.089844 118.527344 351.242188 118.527344 C 361.269531 112.246094 366.28125 85.460938 354.683594 78.429688 C 354.007812 77.980469 353.1875 78.207031 352.585938 78.730469 C 349.519531 81.273438 350.269531 88.230469 349.894531 91.746094 C 349.296875 97.058594 348.847656 102.445312 348.546875 107.757812 C 345.179688 95.113281 339.867188 82.84375 333.28125 71.324219 C 343.832031 57.183594 342.710938 37.136719 332.679688 22.996094 C 331.859375 21.800781 329.761719 21.800781 329.386719 23.445312 C 325.796875 37.0625 328.117188 51.875 329.914062 65.714844 C 323.777344 55.914062 316.742188 46.710938 308.957031 38.332031 C 305.664062 33.019531 303.496094 26.960938 298.855469 22.472656 C 294.664062 18.433594 289.574219 16.1875 283.8125 15.515625 C 283.664062 15.515625 283.515625 15.515625 283.363281 15.589844 C 282.019531 14.769531 279.847656 15.742188 280.519531 17.535156 C 282.839844 23.148438 285.234375 29.054688 289.652344 33.394531 C 294.816406 38.40625 302.222656 41.027344 308.585938 44.167969 L 308.660156 44.167969 C 318.6875 55.761719 327.667969 68.40625 334.703125 81.871094 C 327.070312 75.738281 318.460938 71.25 309.109375 68.105469 C 307.6875 67.65625 306.488281 69.378906 307.238281 70.574219 C 313.671875 80.824219 325.945312 92.195312 338.816406 92.792969 C 339.191406 92.792969 339.492188 92.644531 339.789062 92.421875 C 345.851562 106.707031 349.59375 121.746094 349.820312 137.378906 C 346.300781 127.503906 340.316406 118.753906 332.679688 111.421875 C 331.335938 110.148438 329.613281 111.496094 329.835938 113.066406 C 331.558594 125.261719 337.695312 140.074219 348.695312 146.730469 C 348.996094 146.882812 349.21875 146.957031 349.445312 146.957031 C 349.144531 151.070312 348.546875 155.257812 347.722656 159.449219 C 345.703125 169.324219 342.632812 179.050781 338.742188 188.476562 C 340.988281 177.179688 340.914062 165.734375 334.027344 155.707031 C 333.28125 154.585938 331.410156 154.660156 331.035156 156.082031 C 327.667969 168.351562 326.46875 184.882812 333.953125 195.882812 C 334.179688 196.179688 334.402344 196.328125 334.628906 196.40625 C 334.550781 196.628906 334.550781 196.855469 334.476562 197.078125 C 334.402344 197.300781 334.476562 197.527344 334.550781 197.675781 C 328.640625 209.871094 321.304688 221.390625 313.300781 232.015625 C 312.027344 233.660156 310.753906 235.304688 309.40625 236.875 C 313.074219 229.695312 314.796875 221.539062 314.722656 213.386719 C 314.722656 212.191406 313.449219 211.515625 312.402344 212.039062 C 307.835938 214.507812 305.589844 220.71875 303.792969 225.429688 C 301.398438 231.9375 300.425781 238.746094 300.503906 245.703125 C 300.503906 246.003906 300.578125 246.300781 300.726562 246.527344 C 292.792969 254.53125 283.964844 261.414062 274.234375 266.875 C 279.921875 260.664062 283.363281 252.511719 284.335938 244.132812 C 284.5625 242.5625 282.390625 242.039062 281.417969 242.9375 C 274.160156 249.667969 266.152344 260.441406 265.851562 270.765625 L 265.777344 270.839844 C 265.628906 270.988281 265.554688 271.140625 265.480469 271.289062 C 259.714844 273.90625 253.65625 276 247.292969 277.648438 C 246.023438 277.945312 246.546875 279.519531 247.667969 279.367188 Z M 299.003906 28.382812 C 298.480469 27.933594 297.957031 27.484375 297.433594 26.960938 C 297.210938 26.511719 297.058594 26.140625 296.835938 25.765625 C 297.582031 26.585938 298.332031 27.484375 299.003906 28.382812 Z M 299.003906 28.382812 " fill-opacity="1" fill-rule="nonzero"/></g><g fill="#000000" fill-opacity="1"><g transform="translate(72.508853, 151.355513)"><g><path d="M 1.78125 11.640625 C 2.308594 11.640625 2.726562 11.433594 3.144531 11.011719 C 3.878906 10.171875 4.511719 9.230469 5.035156 8.179688 C 5.769531 6.816406 6.398438 5.558594 7.027344 4.195312 C 7.550781 2.832031 8.179688 1.574219 8.808594 0.210938 C 10.171875 -2.832031 11.640625 -5.769531 13.003906 -8.808594 C 14.367188 -11.746094 15.730469 -14.683594 17.09375 -17.621094 C 21.921875 -27.582031 29.785156 -40.695312 38.699219 -47.40625 C 39.015625 -47.511719 39.226562 -47.71875 39.539062 -47.929688 C 39.855469 -48.035156 40.167969 -48.246094 40.484375 -48.351562 L 40.695312 -48.351562 C 41.007812 -48.351562 41.21875 -48.246094 41.21875 -47.929688 C 41.21875 -47.511719 41.21875 -47.089844 41.21875 -46.671875 C 41.21875 -46.253906 41.113281 -45.832031 41.007812 -45.519531 C 40.589844 -42.582031 39.75 -39.75 38.910156 -36.917969 C 37.546875 -32.40625 36.078125 -27.898438 34.820312 -23.386719 C 33.980469 -20.136719 33.351562 -16.992188 33.039062 -13.320312 C 33.140625 -13.003906 33.140625 -12.585938 33.140625 -12.167969 C 33.039062 -11.746094 33.140625 -11.328125 33.246094 -10.90625 C 33.5625 -9.125 34.402344 -8.285156 35.660156 -8.285156 C 36.289062 -8.285156 36.917969 -8.496094 37.546875 -8.914062 C 38.492188 -9.4375 39.433594 -10.277344 40.378906 -11.433594 C 41.53125 -12.898438 42.6875 -14.367188 43.734375 -15.730469 C 46.355469 -19.402344 48.980469 -22.652344 51.914062 -25.90625 C 52.441406 -26.324219 52.859375 -26.746094 53.277344 -27.269531 C 53.699219 -27.6875 54.222656 -28.109375 54.746094 -28.421875 C 55.273438 -28.738281 55.691406 -28.945312 56.007812 -28.945312 C 57.265625 -28.945312 57.472656 -26.953125 57.789062 -26.011719 C 57.894531 -25.066406 58.105469 -24.226562 58.207031 -23.386719 C 58.3125 -22.445312 58.523438 -21.5 58.628906 -20.554688 C 58.835938 -19.296875 59.046875 -18.039062 59.257812 -16.78125 C 59.46875 -15.417969 59.675781 -14.160156 59.992188 -12.796875 C 60.621094 -9.859375 63.347656 -5.875 66.390625 -5.875 C 67.226562 -5.875 68.277344 -6.1875 69.535156 -6.710938 C 71.84375 -7.972656 81.074219 -19.402344 81.910156 -22.023438 C 82.015625 -22.550781 81.910156 -22.863281 81.386719 -23.074219 C 81.28125 -23.179688 80.96875 -23.285156 80.652344 -23.285156 C 80.339844 -23.285156 80.234375 -23.285156 80.128906 -23.179688 C 79.8125 -23.074219 79.605469 -22.863281 79.289062 -22.550781 C 76.667969 -18.984375 74.570312 -16.152344 72.996094 -13.949219 C 71.421875 -11.746094 70.269531 -10.488281 69.746094 -10.070312 C 68.589844 -9.125 67.542969 -8.703125 66.597656 -8.703125 C 63.242188 -8.703125 62.402344 -14.265625 61.773438 -17.304688 L 60.515625 -26.535156 C 59.992188 -29.367188 59.152344 -31.777344 55.796875 -31.777344 C 54.644531 -31.675781 53.699219 -31.253906 52.753906 -30.414062 C 51.179688 -29.050781 49.921875 -27.792969 48.664062 -26.21875 C 45.726562 -22.96875 43.316406 -19.71875 40.695312 -16.257812 C 39.75 -14.894531 38.597656 -13.632812 37.441406 -12.375 C 37.234375 -12.0625 36.917969 -11.851562 36.601562 -11.851562 C 36.394531 -11.851562 36.289062 -11.851562 36.183594 -11.957031 C 35.867188 -12.167969 35.765625 -12.585938 35.765625 -13.109375 C 35.765625 -15.523438 36.289062 -17.726562 36.8125 -19.925781 C 37.964844 -24.648438 39.226562 -29.15625 40.796875 -33.769531 C 41.953125 -37.441406 43 -41.007812 43.734375 -44.679688 C 44.050781 -46.253906 44.15625 -47.929688 43.839844 -49.503906 C 43.421875 -51.179688 42.371094 -51.601562 40.796875 -51.601562 C 40.484375 -51.496094 40.167969 -51.390625 39.855469 -51.285156 C 39.539062 -51.179688 39.226562 -50.972656 38.910156 -50.867188 C 27.480469 -43.210938 18.457031 -27.269531 12.691406 -14.894531 C 11.535156 -12.269531 10.277344 -9.753906 9.125 -7.132812 C 7.972656 -4.511719 6.710938 -1.886719 5.558594 0.734375 C 5.347656 1.257812 5.140625 1.78125 4.929688 2.308594 C 4.613281 2.832031 4.40625 3.355469 4.195312 3.878906 C 4.089844 3.984375 3.984375 4.195312 3.878906 4.40625 C 3.777344 4.613281 3.566406 4.71875 3.25 4.71875 C 2.9375 4.71875 2.726562 4.613281 2.832031 4.40625 C 2.832031 4.089844 2.832031 3.878906 2.832031 3.671875 C 2.832031 3.25 2.9375 2.726562 3.042969 1.992188 C 3.878906 -4.71875 5.242188 -11.117188 7.238281 -17.410156 C 8.601562 -22.023438 10.070312 -26.640625 11.640625 -31.148438 C 13.109375 -35.660156 14.578125 -40.273438 16.046875 -44.890625 C 16.78125 -47.089844 17.410156 -49.1875 18.039062 -51.390625 C 18.5625 -53.488281 19.296875 -55.585938 20.136719 -57.683594 C 20.453125 -58.417969 20.347656 -59.046875 19.613281 -59.46875 C 19.507812 -59.570312 19.402344 -59.570312 19.089844 -59.570312 C 18.667969 -59.570312 18.25 -59.363281 17.828125 -58.835938 C 17.515625 -58.3125 17.199219 -57.683594 16.992188 -57.160156 C 16.78125 -56.53125 16.570312 -55.902344 16.363281 -55.375 L 9.753906 -34.402344 C 6.816406 -25.171875 3.777344 -16.257812 1.78125 -6.710938 C 0.839844 -2.097656 -0.105469 2.308594 0 7.238281 C 0 7.761719 0 8.179688 0 8.703125 C 0 9.230469 0.105469 9.753906 0.210938 10.277344 C 0.417969 11.222656 0.945312 11.640625 1.78125 11.640625 Z M 1.78125 11.640625 "/></g></g></g><g fill="#000000" fill-opacity="1"><g transform="translate(149.164061, 151.355513)"><g><path d="M 0.523438 -9.019531 C 1.886719 -9.019531 3.671875 -10.488281 4.613281 -11.328125 C 7.238281 -13.738281 9.542969 -16.257812 11.957031 -19.089844 C 12.269531 -19.402344 12.691406 -19.824219 13.003906 -20.242188 C 13.320312 -20.660156 13.84375 -20.976562 14.578125 -21.289062 C 13.84375 -18.457031 13.214844 -15.730469 13.214844 -12.898438 C 13.214844 -10.90625 14.054688 -9.859375 15.835938 -9.859375 C 16.257812 -9.859375 16.570312 -9.859375 16.78125 -9.964844 C 21.1875 -10.699219 28.632812 -17.726562 31.675781 -20.765625 C 31.777344 -20.871094 31.988281 -21.082031 32.09375 -21.1875 C 32.199219 -21.289062 32.199219 -21.394531 32.304688 -21.5 C 32.511719 -22.234375 32.40625 -22.757812 31.882812 -23.074219 C 31.675781 -23.285156 31.464844 -23.386719 31.148438 -23.386719 C 31.042969 -23.386719 30.941406 -23.285156 30.625 -23.179688 C 30.308594 -22.96875 29.996094 -22.757812 29.785156 -22.550781 C 29.472656 -22.234375 29.15625 -22.023438 28.84375 -21.710938 C 27.898438 -20.976562 27.058594 -20.242188 26.324219 -19.507812 C 25.484375 -18.773438 24.648438 -17.933594 23.703125 -17.199219 C 22.445312 -16.046875 21.082031 -15.207031 19.824219 -14.367188 C 18.878906 -13.84375 17.933594 -13.425781 16.992188 -13.003906 C 16.886719 -12.898438 16.78125 -12.898438 16.570312 -12.898438 C 16.152344 -12.898438 15.941406 -13.214844 15.941406 -13.84375 C 15.941406 -18.355469 19.191406 -26.011719 21.1875 -29.996094 C 21.394531 -30.519531 21.605469 -30.941406 21.921875 -31.464844 C 22.128906 -31.882812 22.339844 -32.304688 22.550781 -32.828125 C 22.863281 -33.769531 22.757812 -34.503906 22.023438 -34.925781 C 21.710938 -35.03125 21.5 -35.136719 21.394531 -35.136719 C 21.082031 -35.136719 20.660156 -34.925781 20.136719 -34.402344 C 19.824219 -34.085938 19.613281 -33.667969 19.402344 -33.351562 C 19.089844 -32.933594 18.878906 -32.511719 18.5625 -32.199219 C 17.933594 -31.359375 17.304688 -30.519531 16.78125 -29.679688 C 16.152344 -28.84375 15.523438 -28.003906 14.894531 -27.269531 C 14.472656 -26.746094 14.160156 -26.429688 13.949219 -26.429688 C 13.84375 -26.429688 13.53125 -26.640625 13.003906 -26.953125 C 11.957031 -27.792969 10.90625 -28.210938 9.859375 -28.210938 C 8.703125 -28.210938 7.550781 -27.792969 6.398438 -26.847656 C 5.664062 -26.324219 5.140625 -25.90625 4.824219 -25.484375 C 1.679688 -22.339844 -1.78125 -16.152344 -1.78125 -11.535156 C -1.679688 -9.859375 -0.839844 -9.019531 0.523438 -9.019531 Z M 1.46875 -12.796875 C 1.46875 -12.898438 1.46875 -12.898438 1.363281 -12.898438 L 1.257812 -13.003906 C 2.097656 -17.515625 4.195312 -21.289062 7.445312 -24.121094 C 7.972656 -24.648438 9.230469 -25.382812 9.964844 -25.382812 C 10.488281 -25.382812 10.90625 -25.171875 11.433594 -24.855469 C 11.957031 -24.542969 12.0625 -24.019531 11.851562 -23.386719 C 11.746094 -23.074219 11.535156 -22.96875 11.433594 -22.863281 C 8.601562 -19.402344 5.769531 -15.941406 2.414062 -13.109375 C 2.203125 -12.898438 1.886719 -12.796875 1.46875 -12.796875 Z M 1.46875 -12.796875 "/></g></g></g><g fill="#000000" fill-opacity="1"><g transform="translate(176.323708, 151.355513)"><g><path d="M 6.082031 37.128906 C 9.753906 37.128906 15.941406 22.550781 17.199219 18.878906 C 17.933594 16.992188 18.5625 15.101562 19.191406 13.214844 C 19.824219 11.328125 20.453125 9.4375 21.1875 7.550781 C 22.550781 3.25 32.828125 -6.921875 36.289062 -10.070312 C 39.960938 -13.320312 43.316406 -16.257812 46.777344 -19.507812 C 46.988281 -19.71875 47.195312 -19.925781 47.511719 -20.242188 C 47.71875 -20.453125 47.929688 -20.660156 48.140625 -20.976562 C 48.558594 -21.5 48.558594 -22.023438 48.140625 -22.550781 C 47.929688 -22.863281 47.617188 -23.074219 47.195312 -23.074219 C 47.089844 -23.074219 46.882812 -22.96875 46.566406 -22.863281 L 44.992188 -21.605469 C 38.804688 -16.257812 32.828125 -10.800781 27.269531 -4.929688 C 26.953125 -4.613281 26.640625 -4.195312 26.429688 -3.878906 C 26.113281 -3.566406 25.695312 -3.355469 25.171875 -3.25 C 24.855469 -3.984375 25.066406 -4.511719 25.382812 -5.242188 C 27.164062 -11.957031 29.050781 -18.5625 31.464844 -25.277344 C 31.777344 -26.011719 31.988281 -26.847656 32.199219 -27.6875 C 32.40625 -28.527344 32.617188 -29.367188 32.828125 -30.207031 C 32.933594 -30.941406 32.722656 -31.570312 31.988281 -31.988281 C 31.777344 -32.09375 31.464844 -32.199219 31.148438 -32.199219 C 30.730469 -32.199219 30.414062 -32.09375 30.101562 -31.777344 C 29.367188 -31.253906 28.738281 -30.625 28.109375 -29.996094 C 27.375 -29.367188 26.746094 -28.738281 26.011719 -28.109375 C 25.90625 -28.003906 25.695312 -27.792969 25.589844 -27.582031 C 25.382812 -27.375 25.066406 -27.269531 24.75 -27.269531 C 24.542969 -27.269531 24.332031 -27.269531 24.226562 -27.375 C 24.226562 -31.464844 20.976562 -33.5625 17.304688 -33.5625 C 15.628906 -33.5625 14.054688 -33.039062 12.480469 -32.304688 C 6.1875 -29.050781 2.203125 -24.019531 0.417969 -17.199219 C 0 -15.207031 -0.210938 -13.425781 0.210938 -11.433594 C 0.734375 -9.019531 2.308594 -8.390625 4.511719 -8.390625 C 7.027344 -8.601562 12.691406 -12.585938 14.789062 -14.367188 C 16.78125 -15.941406 18.667969 -17.621094 20.554688 -19.296875 C 22.339844 -20.976562 24.226562 -22.652344 26.113281 -24.332031 C 26.429688 -24.648438 26.746094 -25.066406 27.058594 -25.382812 C 27.375 -25.695312 27.792969 -26.011719 28.316406 -26.113281 C 28.632812 -25.171875 28.421875 -24.648438 28.109375 -23.914062 C 26.746094 -19.71875 25.484375 -15.523438 24.332031 -11.433594 C 23.074219 -7.339844 21.816406 -3.144531 20.554688 1.046875 C 20.03125 3.042969 18.984375 4.824219 17.621094 6.503906 C 12.375 12.796875 5.976562 22.023438 3.984375 30.101562 C 3.566406 31.882812 3.566406 33.667969 3.878906 35.238281 C 4.300781 36.5 5.035156 37.128906 6.082031 37.128906 Z M 6.816406 32.828125 C 6.710938 32.722656 6.710938 32.722656 6.609375 32.617188 C 6.503906 32.511719 6.398438 32.511719 6.398438 32.40625 C 6.503906 32.09375 6.503906 31.882812 6.503906 31.570312 C 6.503906 31.253906 6.609375 31.042969 6.710938 30.730469 C 7.867188 25.695312 11.746094 18.5625 14.996094 14.578125 C 15.3125 14.683594 15.523438 14.894531 15.523438 15.101562 C 15.523438 15.3125 15.523438 15.523438 15.417969 15.628906 C 13.425781 21.394531 11.011719 26.746094 7.761719 31.882812 C 7.65625 32.199219 7.445312 32.40625 7.132812 32.722656 C 7.027344 32.722656 7.027344 32.722656 7.027344 32.828125 C 6.921875 32.828125 6.921875 32.828125 6.816406 32.828125 Z M 4.089844 -11.117188 C 3.355469 -11.117188 2.9375 -11.640625 2.832031 -12.585938 C 2.726562 -13.738281 2.726562 -14.789062 2.9375 -15.628906 C 4.300781 -22.234375 8.074219 -27.058594 14.054688 -29.996094 C 15.207031 -30.414062 16.046875 -30.730469 17.199219 -30.730469 C 19.296875 -30.730469 21.1875 -29.996094 21.5 -27.582031 L 21.5 -25.800781 C 21.710938 -24.648438 21.1875 -23.492188 19.824219 -22.339844 C 16.464844 -19.402344 13.109375 -16.363281 9.4375 -13.84375 C 8.074219 -12.898438 6.609375 -12.0625 5.035156 -11.328125 C 4.613281 -11.222656 4.300781 -11.117188 4.089844 -11.117188 Z M 4.089844 -11.117188 "/></g></g></g><g fill="#000000" fill-opacity="1"><g transform="translate(219.527469, 151.355513)"><g><path d="M 0.523438 -9.019531 C 1.886719 -9.019531 3.671875 -10.488281 4.613281 -11.328125 C 7.238281 -13.738281 9.542969 -16.257812 11.957031 -19.089844 C 12.269531 -19.402344 12.691406 -19.824219 13.003906 -20.242188 C 13.320312 -20.660156 13.84375 -20.976562 14.578125 -21.289062 C 13.84375 -18.457031 13.214844 -15.730469 13.214844 -12.898438 C 13.214844 -10.90625 14.054688 -9.859375 15.835938 -9.859375 C 16.257812 -9.859375 16.570312 -9.859375 16.78125 -9.964844 C 21.1875 -10.699219 28.632812 -17.726562 31.675781 -20.765625 C 31.777344 -20.871094 31.988281 -21.082031 32.09375 -21.1875 C 32.199219 -21.289062 32.199219 -21.394531 32.304688 -21.5 C 32.511719 -22.234375 32.40625 -22.757812 31.882812 -23.074219 C 31.675781 -23.285156 31.464844 -23.386719 31.148438 -23.386719 C 31.042969 -23.386719 30.941406 -23.285156 30.625 -23.179688 C 30.308594 -22.96875 29.996094 -22.757812 29.785156 -22.550781 C 29.472656 -22.234375 29.15625 -22.023438 28.84375 -21.710938 C 27.898438 -20.976562 27.058594 -20.242188 26.324219 -19.507812 C 25.484375 -18.773438 24.648438 -17.933594 23.703125 -17.199219 C 22.445312 -16.046875 21.082031 -15.207031 19.824219 -14.367188 C 18.878906 -13.84375 17.933594 -13.425781 16.992188 -13.003906 C 16.886719 -12.898438 16.78125 -12.898438 16.570312 -12.898438 C 16.152344 -12.898438 15.941406 -13.214844 15.941406 -13.84375 C 15.941406 -18.355469 19.191406 -26.011719 21.1875 -29.996094 C 21.394531 -30.519531 21.605469 -30.941406 21.921875 -31.464844 C 22.128906 -31.882812 22.339844 -32.304688 22.550781 -32.828125 C 22.863281 -33.769531 22.757812 -34.503906 22.023438 -34.925781 C 21.710938 -35.03125 21.5 -35.136719 21.394531 -35.136719 C 21.082031 -35.136719 20.660156 -34.925781 20.136719 -34.402344 C 19.824219 -34.085938 19.613281 -33.667969 19.402344 -33.351562 C 19.089844 -32.933594 18.878906 -32.511719 18.5625 -32.199219 C 17.933594 -31.359375 17.304688 -30.519531 16.78125 -29.679688 C 16.152344 -28.84375 15.523438 -28.003906 14.894531 -27.269531 C 14.472656 -26.746094 14.160156 -26.429688 13.949219 -26.429688 C 13.84375 -26.429688 13.53125 -26.640625 13.003906 -26.953125 C 11.957031 -27.792969 10.90625 -28.210938 9.859375 -28.210938 C 8.703125 -28.210938 7.550781 -27.792969 6.398438 -26.847656 C 5.664062 -26.324219 5.140625 -25.90625 4.824219 -25.484375 C 1.679688 -22.339844 -1.78125 -16.152344 -1.78125 -11.535156 C -1.679688 -9.859375 -0.839844 -9.019531 0.523438 -9.019531 Z M 1.46875 -12.796875 C 1.46875 -12.898438 1.46875 -12.898438 1.363281 -12.898438 L 1.257812 -13.003906 C 2.097656 -17.515625 4.195312 -21.289062 7.445312 -24.121094 C 7.972656 -24.648438 9.230469 -25.382812 9.964844 -25.382812 C 10.488281 -25.382812 10.90625 -25.171875 11.433594 -24.855469 C 11.957031 -24.542969 12.0625 -24.019531 11.851562 -23.386719 C 11.746094 -23.074219 11.535156 -22.96875 11.433594 -22.863281 C 8.601562 -19.402344 5.769531 -15.941406 2.414062 -13.109375 C 2.203125 -12.898438 1.886719 -12.796875 1.46875 -12.796875 Z M 1.46875 -12.796875 "/></g></g></g><g fill="#000000" fill-opacity="1"><g transform="translate(246.687116, 151.355513)"><g><path d="M -0.316406 1.78125 C 0.316406 1.78125 0.839844 1.46875 1.152344 0.945312 C 1.886719 -0.210938 2.515625 -1.152344 3.042969 -2.308594 C 3.984375 -4.089844 4.824219 -5.769531 5.664062 -7.445312 C 6.398438 -9.125 7.238281 -10.800781 8.074219 -12.480469 C 9.335938 -14.894531 10.800781 -17.199219 12.796875 -19.191406 C 13.214844 -19.71875 13.632812 -20.242188 14.578125 -20.242188 C 14.894531 -19.824219 15.101562 -19.402344 15.3125 -18.984375 C 15.523438 -18.5625 15.835938 -18.144531 16.152344 -17.726562 C 17.304688 -16.152344 18.667969 -15.417969 20.453125 -15.417969 C 23.386719 -15.417969 27.792969 -18.878906 29.785156 -20.871094 C 30.101562 -21.1875 30.414062 -21.605469 30.730469 -22.234375 C 30.941406 -22.652344 30.835938 -23.074219 30.414062 -23.492188 C 30.101562 -23.703125 29.890625 -23.808594 29.578125 -23.808594 C 29.367188 -23.808594 29.261719 -23.808594 29.15625 -23.703125 C 28.632812 -23.386719 28.210938 -23.074219 27.792969 -22.652344 C 26.011719 -21.1875 22.339844 -18.144531 20.453125 -18.144531 C 19.507812 -18.144531 18.667969 -18.773438 17.933594 -20.03125 C 17.726562 -20.347656 17.515625 -20.765625 17.410156 -21.289062 C 17.199219 -21.710938 16.992188 -22.128906 16.78125 -22.445312 C 16.257812 -23.285156 15.628906 -23.703125 14.789062 -23.703125 C 14.367188 -23.703125 13.949219 -23.597656 13.53125 -23.386719 C 10.277344 -21.394531 7.761719 -17.828125 6.082031 -14.578125 L 1.992188 -6.292969 L 1.886719 -6.398438 L 1.992188 -6.398438 C 1.46875 -7.550781 1.78125 -8.601562 2.097656 -9.753906 C 2.9375 -12.898438 4.089844 -16.152344 5.453125 -19.402344 C 6.398438 -21.5 7.339844 -23.597656 8.179688 -25.695312 C 8.496094 -26.535156 8.703125 -27.269531 8.703125 -28.003906 C 8.808594 -28.527344 8.601562 -28.84375 7.972656 -29.050781 L 7.65625 -29.050781 C 7.238281 -29.050781 6.921875 -28.945312 6.710938 -28.738281 C 6.398438 -28.316406 6.1875 -27.792969 5.875 -27.269531 C 2.203125 -18.878906 -0.734375 -11.957031 -2.097656 -2.621094 C -2.203125 -2.097656 -2.203125 -1.679688 -2.203125 -1.257812 C -2.097656 -0.734375 -2.097656 -0.316406 -2.097656 0.105469 C -1.992188 0.945312 -1.574219 1.46875 -0.839844 1.679688 C -0.734375 1.679688 -0.628906 1.679688 -0.628906 1.78125 C -0.523438 1.78125 -0.417969 1.78125 -0.316406 1.78125 Z M -0.316406 1.78125 "/></g></g></g><g fill="#000000" fill-opacity="1"><g transform="translate(272.273813, 151.355513)"><g><path d="M 4.511719 -3.777344 C 7.339844 -3.777344 10.171875 -5.976562 12.167969 -7.761719 C 16.78125 -11.640625 20.453125 -16.257812 24.121094 -20.976562 C 24.4375 -21.289062 24.648438 -21.605469 24.75 -22.128906 C 24.855469 -22.652344 24.75 -23.074219 24.332031 -23.386719 C 24.121094 -23.597656 23.914062 -23.703125 23.597656 -23.703125 C 23.386719 -23.703125 23.179688 -23.597656 23.074219 -23.492188 C 22.550781 -23.074219 22.023438 -22.652344 21.605469 -22.128906 C 20.765625 -21.1875 19.925781 -20.136719 19.191406 -19.191406 C 18.457031 -18.25 17.621094 -17.199219 16.78125 -16.257812 C 14.367188 -13.425781 11.851562 -11.011719 9.019531 -8.601562 C 7.761719 -7.65625 6.609375 -6.921875 5.035156 -6.609375 C 3.878906 -6.609375 3.25 -6.710938 2.9375 -7.867188 C 2.726562 -8.808594 2.621094 -9.753906 2.726562 -10.59375 C 3.355469 -15.523438 4.929688 -20.765625 6.710938 -25.382812 C 6.816406 -25.90625 6.710938 -26.324219 6.1875 -26.535156 C 5.875 -26.640625 5.664062 -26.746094 5.453125 -26.746094 C 5.242188 -26.746094 4.929688 -26.640625 4.613281 -26.429688 C 1.886719 -23.703125 0.734375 -15.207031 0 -10.59375 C 0 -9.019531 0 -7.972656 0.417969 -6.816406 C 1.152344 -4.824219 2.515625 -3.777344 4.511719 -3.777344 Z M 7.238281 -30.519531 C 8.390625 -30.519531 9.4375 -31.570312 9.4375 -32.722656 C 9.335938 -33.875 8.601562 -34.402344 7.339844 -34.402344 C 6.082031 -34.402344 5.453125 -33.769531 5.453125 -32.511719 C 5.558594 -31.253906 6.292969 -30.414062 7.238281 -30.519531 Z M 7.238281 -30.519531 "/></g></g></g><g fill="#000000" fill-opacity="1"><g transform="translate(138.091885, 203.921985)"><g><path d="M 6.796875 -4.53125 C 6.796875 -3.925781 6.726562 -3.347656 6.59375 -2.796875 C 6.46875 -2.242188 6.265625 -1.757812 5.984375 -1.34375 C 5.703125 -0.925781 5.335938 -0.597656 4.890625 -0.359375 C 4.453125 -0.117188 3.921875 0 3.296875 0 L 0.34375 0 L 0.34375 -9.09375 L 3.296875 -9.09375 C 3.910156 -9.09375 4.4375 -8.96875 4.875 -8.71875 C 5.320312 -8.46875 5.6875 -8.132812 5.96875 -7.71875 C 6.25 -7.300781 6.457031 -6.816406 6.59375 -6.265625 C 6.726562 -5.722656 6.796875 -5.144531 6.796875 -4.53125 Z M 5.84375 -4.53125 C 5.84375 -5.71875 5.617188 -6.640625 5.171875 -7.296875 C 4.722656 -7.953125 4.097656 -8.28125 3.296875 -8.28125 L 1.296875 -8.28125 L 1.296875 -0.8125 L 3.296875 -0.8125 C 4.097656 -0.8125 4.722656 -1.132812 5.171875 -1.78125 C 5.617188 -2.425781 5.84375 -3.34375 5.84375 -4.53125 Z M 5.84375 -4.53125 "/></g></g></g><g fill="#000000" fill-opacity="1"><g transform="translate(148.977829, 203.921985)"><g><path d="M 5.1875 0 L 1.296875 0 L 1.296875 -0.8125 L 2.765625 -0.8125 L 2.765625 -8.28125 L 1.296875 -8.28125 L 1.296875 -9.09375 L 5.1875 -9.09375 L 5.1875 -8.28125 L 3.734375 -8.28125 L 3.734375 -0.8125 L 5.1875 -0.8125 Z M 5.1875 0 "/></g></g></g><g fill="#000000" fill-opacity="1"><g transform="translate(159.863772, 203.921985)"><g><path d="M 6.578125 0 L 5.359375 0 L 2.703125 -3.890625 L 1.296875 -3.890625 L 1.296875 0 L 0.34375 0 L 0.34375 -9.09375 L 3.34375 -9.09375 C 4.332031 -9.09375 5.101562 -8.875 5.65625 -8.4375 C 6.207031 -8 6.484375 -7.347656 6.484375 -6.484375 C 6.484375 -6.109375 6.414062 -5.769531 6.28125 -5.46875 C 6.144531 -5.164062 5.957031 -4.90625 5.71875 -4.6875 C 5.488281 -4.476562 5.210938 -4.304688 4.890625 -4.171875 C 4.566406 -4.046875 4.21875 -3.96875 3.84375 -3.9375 Z M 5.484375 -6.484375 C 5.484375 -7.109375 5.289062 -7.5625 4.90625 -7.84375 C 4.53125 -8.132812 4.007812 -8.28125 3.34375 -8.28125 L 1.296875 -8.28125 L 1.296875 -4.703125 L 3.34375 -4.703125 C 4.007812 -4.703125 4.53125 -4.84375 4.90625 -5.125 C 5.289062 -5.40625 5.484375 -5.859375 5.484375 -6.484375 Z M 5.484375 -6.484375 "/></g></g></g><g fill="#000000" fill-opacity="1"><g transform="translate(170.749714, 203.921985)"><g><path d="M 6.15625 0 L 0.34375 0 L 0.34375 -9.09375 L 6.15625 -9.09375 L 6.15625 -8.28125 L 1.296875 -8.28125 L 1.296875 -5.015625 L 4.875 -5.015625 L 4.875 -4.203125 L 1.296875 -4.203125 L 1.296875 -0.8125 L 6.15625 -0.8125 Z M 6.15625 0 "/></g></g></g><g fill="#000000" fill-opacity="1"><g transform="translate(181.635658, 203.921985)"><g><path d="M 6.546875 -2.375 C 6.304688 -1.601562 5.914062 -0.988281 5.375 -0.53125 C 4.84375 -0.0703125 4.164062 0.15625 3.34375 0.15625 C 2.707031 0.15625 2.171875 0.0234375 1.734375 -0.234375 C 1.296875 -0.492188 0.9375 -0.835938 0.65625 -1.265625 C 0.375 -1.703125 0.171875 -2.203125 0.046875 -2.765625 C -0.078125 -3.335938 -0.140625 -3.925781 -0.140625 -4.53125 C -0.140625 -5.144531 -0.078125 -5.734375 0.046875 -6.296875 C 0.171875 -6.859375 0.375 -7.359375 0.65625 -7.796875 C 0.9375 -8.234375 1.296875 -8.582031 1.734375 -8.84375 C 2.171875 -9.113281 2.707031 -9.25 3.34375 -9.25 C 3.90625 -9.25 4.382812 -9.144531 4.78125 -8.9375 C 5.1875 -8.738281 5.484375 -8.4375 5.671875 -8.03125 L 5.671875 -9.09375 L 6.484375 -9.09375 L 6.484375 -6.109375 L 5.671875 -6.109375 C 5.671875 -6.429688 5.609375 -6.734375 5.484375 -7.015625 C 5.367188 -7.304688 5.207031 -7.554688 5 -7.765625 C 4.789062 -7.972656 4.539062 -8.132812 4.25 -8.25 C 3.96875 -8.363281 3.664062 -8.421875 3.34375 -8.421875 C 2.851562 -8.421875 2.445312 -8.304688 2.125 -8.078125 C 1.800781 -7.847656 1.539062 -7.546875 1.34375 -7.171875 C 1.15625 -6.796875 1.019531 -6.375 0.9375 -5.90625 C 0.851562 -5.445312 0.8125 -4.988281 0.8125 -4.53125 C 0.8125 -4.082031 0.851562 -3.625 0.9375 -3.15625 C 1.019531 -2.695312 1.15625 -2.28125 1.34375 -1.90625 C 1.539062 -1.539062 1.800781 -1.238281 2.125 -1 C 2.445312 -0.769531 2.851562 -0.65625 3.34375 -0.65625 C 4.476562 -0.65625 5.269531 -1.335938 5.71875 -2.703125 Z M 6.546875 -2.375 "/></g></g></g><g fill="#000000" fill-opacity="1"><g transform="translate(192.521602, 203.921985)"><g><path d="M 6.484375 -6.015625 L 5.671875 -6.015625 L 5.671875 -8.28125 L 3.734375 -8.28125 L 3.734375 -0.8125 L 5.1875 -0.8125 L 5.1875 0 L 1.296875 0 L 1.296875 -0.8125 L 2.765625 -0.8125 L 2.765625 -8.28125 L 0.8125 -8.28125 L 0.8125 -6.015625 L 0 -6.015625 L 0 -9.09375 L 6.484375 -9.09375 Z M 6.484375 -6.015625 "/></g></g></g><g fill="#000000" fill-opacity="1"><g transform="translate(203.407543, 203.921985)"><g><path d="M 6.734375 -4.53125 C 6.734375 -3.925781 6.671875 -3.335938 6.546875 -2.765625 C 6.421875 -2.203125 6.21875 -1.703125 5.9375 -1.265625 C 5.664062 -0.835938 5.304688 -0.492188 4.859375 -0.234375 C 4.421875 0.0234375 3.882812 0.15625 3.25 0.15625 C 2.613281 0.15625 2.070312 0.0234375 1.625 -0.234375 C 1.1875 -0.492188 0.828125 -0.835938 0.546875 -1.265625 C 0.273438 -1.703125 0.078125 -2.203125 -0.046875 -2.765625 C -0.171875 -3.335938 -0.234375 -3.925781 -0.234375 -4.53125 C -0.234375 -5.144531 -0.171875 -5.734375 -0.046875 -6.296875 C 0.078125 -6.859375 0.28125 -7.359375 0.5625 -7.796875 C 0.84375 -8.234375 1.203125 -8.582031 1.640625 -8.84375 C 2.085938 -9.113281 2.625 -9.25 3.25 -9.25 C 3.875 -9.25 4.410156 -9.113281 4.859375 -8.84375 C 5.304688 -8.582031 5.664062 -8.234375 5.9375 -7.796875 C 6.207031 -7.359375 6.40625 -6.859375 6.53125 -6.296875 C 6.664062 -5.734375 6.734375 -5.144531 6.734375 -4.53125 Z M 5.78125 -4.53125 C 5.78125 -5.132812 5.722656 -5.675781 5.609375 -6.15625 C 5.492188 -6.632812 5.328125 -7.039062 5.109375 -7.375 C 4.898438 -7.71875 4.640625 -7.976562 4.328125 -8.15625 C 4.015625 -8.332031 3.65625 -8.421875 3.25 -8.421875 C 2.75 -8.421875 2.335938 -8.304688 2.015625 -8.078125 C 1.703125 -7.847656 1.445312 -7.546875 1.25 -7.171875 C 1.050781 -6.796875 0.910156 -6.375 0.828125 -5.90625 C 0.753906 -5.445312 0.71875 -4.988281 0.71875 -4.53125 C 0.71875 -4.082031 0.753906 -3.625 0.828125 -3.15625 C 0.910156 -2.695312 1.050781 -2.28125 1.25 -1.90625 C 1.445312 -1.539062 1.703125 -1.238281 2.015625 -1 C 2.335938 -0.769531 2.75 -0.65625 3.25 -0.65625 C 3.738281 -0.65625 4.144531 -0.769531 4.46875 -1 C 4.800781 -1.238281 5.0625 -1.539062 5.25 -1.90625 C 5.445312 -2.28125 5.582031 -2.695312 5.65625 -3.15625 C 5.738281 -3.625 5.78125 -4.082031 5.78125 -4.53125 Z M 5.78125 -4.53125 "/></g></g></g><g fill="#000000" fill-opacity="1"><g transform="translate(214.293484, 203.921985)"><g><path d="M 6.578125 0 L 5.359375 0 L 2.703125 -3.890625 L 1.296875 -3.890625 L 1.296875 0 L 0.34375 0 L 0.34375 -9.09375 L 3.34375 -9.09375 C 4.332031 -9.09375 5.101562 -8.875 5.65625 -8.4375 C 6.207031 -8 6.484375 -7.347656 6.484375 -6.484375 C 6.484375 -6.109375 6.414062 -5.769531 6.28125 -5.46875 C 6.144531 -5.164062 5.957031 -4.90625 5.71875 -4.6875 C 5.488281 -4.476562 5.210938 -4.304688 4.890625 -4.171875 C 4.566406 -4.046875 4.21875 -3.96875 3.84375 -3.9375 Z M 5.484375 -6.484375 C 5.484375 -7.109375 5.289062 -7.5625 4.90625 -7.84375 C 4.53125 -8.132812 4.007812 -8.28125 3.34375 -8.28125 L 1.296875 -8.28125 L 1.296875 -4.703125 L 3.34375 -4.703125 C 4.007812 -4.703125 4.53125 -4.84375 4.90625 -5.125 C 5.289062 -5.40625 5.484375 -5.859375 5.484375 -6.484375 Z M 5.484375 -6.484375 "/></g></g></g><g fill="#000000" fill-opacity="1"><g transform="translate(225.179425, 203.921985)"><g><path d="M 5.1875 0 L 1.296875 0 L 1.296875 -0.8125 L 2.765625 -0.8125 L 2.765625 -8.28125 L 1.296875 -8.28125 L 1.296875 -9.09375 L 5.1875 -9.09375 L 5.1875 -8.28125 L 3.734375 -8.28125 L 3.734375 -0.8125 L 5.1875 -0.8125 Z M 5.1875 0 "/></g></g></g><g fill="#000000" fill-opacity="1"><g transform="translate(236.065366, 203.921985)"><g><path d="M 6.734375 -4.53125 C 6.734375 -3.925781 6.671875 -3.335938 6.546875 -2.765625 C 6.421875 -2.203125 6.21875 -1.703125 5.9375 -1.265625 C 5.664062 -0.835938 5.304688 -0.492188 4.859375 -0.234375 C 4.421875 0.0234375 3.882812 0.15625 3.25 0.15625 C 2.613281 0.15625 2.070312 0.0234375 1.625 -0.234375 C 1.1875 -0.492188 0.828125 -0.835938 0.546875 -1.265625 C 0.273438 -1.703125 0.078125 -2.203125 -0.046875 -2.765625 C -0.171875 -3.335938 -0.234375 -3.925781 -0.234375 -4.53125 C -0.234375 -5.144531 -0.171875 -5.734375 -0.046875 -6.296875 C 0.078125 -6.859375 0.28125 -7.359375 0.5625 -7.796875 C 0.84375 -8.234375 1.203125 -8.582031 1.640625 -8.84375 C 2.085938 -9.113281 2.625 -9.25 3.25 -9.25 C 3.875 -9.25 4.410156 -9.113281 4.859375 -8.84375 C 5.304688 -8.582031 5.664062 -8.234375 5.9375 -7.796875 C 6.207031 -7.359375 6.40625 -6.859375 6.53125 -6.296875 C 6.664062 -5.734375 6.734375 -5.144531 6.734375 -4.53125 Z M 5.78125 -4.53125 C 5.78125 -5.132812 5.722656 -5.675781 5.609375 -6.15625 C 5.492188 -6.632812 5.328125 -7.039062 5.109375 -7.375 C 4.898438 -7.71875 4.640625 -7.976562 4.328125 -8.15625 C 4.015625 -8.332031 3.65625 -8.421875 3.25 -8.421875 C 2.75 -8.421875 2.335938 -8.304688 2.015625 -8.078125 C 1.703125 -7.847656 1.445312 -7.546875 1.25 -7.171875 C 1.050781 -6.796875 0.910156 -6.375 0.828125 -5.90625 C 0.753906 -5.445312 0.71875 -4.988281 0.71875 -4.53125 C 0.71875 -4.082031 0.753906 -3.625 0.828125 -3.15625 C 0.910156 -2.695312 1.050781 -2.28125 1.25 -1.90625 C 1.445312 -1.539062 1.703125 -1.238281 2.015625 -1 C 2.335938 -0.769531 2.75 -0.65625 3.25 -0.65625 C 3.738281 -0.65625 4.144531 -0.769531 4.46875 -1 C 4.800781 -1.238281 5.0625 -1.539062 5.25 -1.90625 C 5.445312 -2.28125 5.582031 -2.695312 5.65625 -3.15625 C 5.738281 -3.625 5.78125 -4.082031 5.78125 -4.53125 Z M 5.78125 -4.53125 "/></g></g></g><g fill="#000000" fill-opacity="1"><g transform="translate(170.757655, 225.33035)"><g><path d="M 6.15625 -6.734375 C 6.15625 -6.484375 6.128906 -6.257812 6.078125 -6.0625 C 6.035156 -5.863281 5.957031 -5.660156 5.84375 -5.453125 C 5.726562 -5.242188 5.578125 -5.023438 5.390625 -4.796875 C 5.210938 -4.578125 4.976562 -4.320312 4.6875 -4.03125 L 1.53125 -0.8125 L 5.359375 -0.8125 L 5.359375 -2.59375 L 6.171875 -2.59375 L 6.171875 0 L 0.265625 0 L 0.265625 -0.84375 L 3.8125 -4.4375 C 3.988281 -4.613281 4.160156 -4.789062 4.328125 -4.96875 C 4.492188 -5.15625 4.640625 -5.34375 4.765625 -5.53125 C 4.898438 -5.71875 5.003906 -5.910156 5.078125 -6.109375 C 5.148438 -6.304688 5.1875 -6.515625 5.1875 -6.734375 C 5.1875 -7.296875 5 -7.71875 4.625 -8 C 4.257812 -8.28125 3.804688 -8.421875 3.265625 -8.421875 C 2.503906 -8.421875 1.925781 -8.207031 1.53125 -7.78125 C 1.144531 -7.363281 0.953125 -6.757812 0.953125 -5.96875 L 0.0625 -5.96875 C 0.0625 -6.988281 0.335938 -7.789062 0.890625 -8.375 C 1.441406 -8.957031 2.234375 -9.25 3.265625 -9.25 C 3.660156 -9.25 4.03125 -9.191406 4.375 -9.078125 C 4.71875 -8.960938 5.019531 -8.796875 5.28125 -8.578125 C 5.550781 -8.367188 5.765625 -8.109375 5.921875 -7.796875 C 6.078125 -7.484375 6.15625 -7.128906 6.15625 -6.734375 Z M 6.15625 -6.734375 "/></g></g></g><g fill="#000000" fill-opacity="1"><g transform="translate(181.643598, 225.33035)"><g><path d="M 0.71875 -4.53125 C 0.71875 -3.863281 0.800781 -3.234375 0.96875 -2.640625 L 5.21875 -7.140625 C 5 -7.554688 4.722656 -7.875 4.390625 -8.09375 C 4.066406 -8.3125 3.6875 -8.421875 3.25 -8.421875 C 2.4375 -8.421875 1.8125 -8.070312 1.375 -7.375 C 0.9375 -6.6875 0.71875 -5.738281 0.71875 -4.53125 Z M 1.296875 -1.859375 C 1.753906 -1.046875 2.40625 -0.640625 3.25 -0.640625 C 4.050781 -0.640625 4.671875 -0.984375 5.109375 -1.671875 C 5.554688 -2.367188 5.78125 -3.320312 5.78125 -4.53125 C 5.78125 -4.863281 5.757812 -5.179688 5.71875 -5.484375 C 5.675781 -5.785156 5.613281 -6.070312 5.53125 -6.34375 Z M -0.234375 -4.53125 C -0.234375 -5.144531 -0.164062 -5.734375 -0.03125 -6.296875 C 0.09375 -6.859375 0.289062 -7.359375 0.5625 -7.796875 C 0.84375 -8.234375 1.203125 -8.582031 1.640625 -8.84375 C 2.085938 -9.113281 2.625 -9.25 3.25 -9.25 C 3.875 -9.25 4.410156 -9.113281 4.859375 -8.84375 C 5.304688 -8.582031 5.664062 -8.234375 5.9375 -7.796875 C 6.21875 -7.359375 6.421875 -6.859375 6.546875 -6.296875 C 6.671875 -5.734375 6.734375 -5.144531 6.734375 -4.53125 C 6.734375 -3.925781 6.671875 -3.335938 6.546875 -2.765625 C 6.421875 -2.203125 6.21875 -1.703125 5.9375 -1.265625 C 5.664062 -0.835938 5.304688 -0.492188 4.859375 -0.234375 C 4.421875 0.0234375 3.882812 0.15625 3.25 0.15625 C 2.613281 0.15625 2.070312 0.0234375 1.625 -0.234375 C 1.1875 -0.492188 0.828125 -0.835938 0.546875 -1.265625 C 0.273438 -1.703125 0.078125 -2.203125 -0.046875 -2.765625 C -0.171875 -3.335938 -0.234375 -3.925781 -0.234375 -4.53125 Z M -0.234375 -4.53125 "/></g></g></g><g fill="#000000" fill-opacity="1"><g transform="translate(192.529541, 225.33035)"><g><path d="M 6.15625 -6.734375 C 6.15625 -6.484375 6.128906 -6.257812 6.078125 -6.0625 C 6.035156 -5.863281 5.957031 -5.660156 5.84375 -5.453125 C 5.726562 -5.242188 5.578125 -5.023438 5.390625 -4.796875 C 5.210938 -4.578125 4.976562 -4.320312 4.6875 -4.03125 L 1.53125 -0.8125 L 5.359375 -0.8125 L 5.359375 -2.59375 L 6.171875 -2.59375 L 6.171875 0 L 0.265625 0 L 0.265625 -0.84375 L 3.8125 -4.4375 C 3.988281 -4.613281 4.160156 -4.789062 4.328125 -4.96875 C 4.492188 -5.15625 4.640625 -5.34375 4.765625 -5.53125 C 4.898438 -5.71875 5.003906 -5.910156 5.078125 -6.109375 C 5.148438 -6.304688 5.1875 -6.515625 5.1875 -6.734375 C 5.1875 -7.296875 5 -7.71875 4.625 -8 C 4.257812 -8.28125 3.804688 -8.421875 3.265625 -8.421875 C 2.503906 -8.421875 1.925781 -8.207031 1.53125 -7.78125 C 1.144531 -7.363281 0.953125 -6.757812 0.953125 -5.96875 L 0.0625 -5.96875 C 0.0625 -6.988281 0.335938 -7.789062 0.890625 -8.375 C 1.441406 -8.957031 2.234375 -9.25 3.265625 -9.25 C 3.660156 -9.25 4.03125 -9.191406 4.375 -9.078125 C 4.71875 -8.960938 5.019531 -8.796875 5.28125 -8.578125 C 5.550781 -8.367188 5.765625 -8.109375 5.921875 -7.796875 C 6.078125 -7.484375 6.15625 -7.128906 6.15625 -6.734375 Z M 6.15625 -6.734375 "/></g></g></g><g fill="#000000" fill-opacity="1"><g transform="translate(203.415484, 225.33035)"><g><path d="M 6.15625 -6.734375 C 6.15625 -6.484375 6.128906 -6.257812 6.078125 -6.0625 C 6.035156 -5.863281 5.957031 -5.660156 5.84375 -5.453125 C 5.726562 -5.242188 5.578125 -5.023438 5.390625 -4.796875 C 5.210938 -4.578125 4.976562 -4.320312 4.6875 -4.03125 L 1.53125 -0.8125 L 5.359375 -0.8125 L 5.359375 -2.59375 L 6.171875 -2.59375 L 6.171875 0 L 0.265625 0 L 0.265625 -0.84375 L 3.8125 -4.4375 C 3.988281 -4.613281 4.160156 -4.789062 4.328125 -4.96875 C 4.492188 -5.15625 4.640625 -5.34375 4.765625 -5.53125 C 4.898438 -5.71875 5.003906 -5.910156 5.078125 -6.109375 C 5.148438 -6.304688 5.1875 -6.515625 5.1875 -6.734375 C 5.1875 -7.296875 5 -7.71875 4.625 -8 C 4.257812 -8.28125 3.804688 -8.421875 3.265625 -8.421875 C 2.503906 -8.421875 1.925781 -8.207031 1.53125 -7.78125 C 1.144531 -7.363281 0.953125 -6.757812 0.953125 -5.96875 L 0.0625 -5.96875 C 0.0625 -6.988281 0.335938 -7.789062 0.890625 -8.375 C 1.441406 -8.957031 2.234375 -9.25 3.265625 -9.25 C 3.660156 -9.25 4.03125 -9.191406 4.375 -9.078125 C 4.71875 -8.960938 5.019531 -8.796875 5.28125 -8.578125 C 5.550781 -8.367188 5.765625 -8.109375 5.921875 -7.796875 C 6.078125 -7.484375 6.15625 -7.128906 6.15625 -6.734375 Z M 6.15625 -6.734375 "/></g></g></g></svg>